<svg xmlns="http://www.w3.org/2000/svg" width="200" height="200" viewBox="0 0 200 200">
  <rect width="200" height="200" fill="#f8f9fa"/>
  
  <!-- Grid pattern -->
  <pattern id="smallGrid" width="20" height="20" patternUnits="userSpaceOnUse">
    <path d="M 20 0 L 0 0 0 20" fill="none" stroke="rgba(0,0,0,0.05)" stroke-width="1"/>
  </pattern>
  
  <rect width="200" height="200" fill="url(#smallGrid)"/>
  
  <!-- Dots pattern -->
  <g fill="rgba(0,0,0,0.07)">
    <circle cx="20" cy="20" r="1.5"/>
    <circle cx="60" cy="20" r="1.5"/>
    <circle cx="100" cy="20" r="1.5"/>
    <circle cx="140" cy="20" r="1.5"/>
    <circle cx="180" cy="20" r="1.5"/>
    
    <circle cx="40" cy="40" r="1.5"/>
    <circle cx="80" cy="40" r="1.5"/>
    <circle cx="120" cy="40" r="1.5"/>
    <circle cx="160" cy="40" r="1.5"/>
    
    <circle cx="20" cy="60" r="1.5"/>
    <circle cx="60" cy="60" r="1.5"/>
    <circle cx="100" cy="60" r="1.5"/>
    <circle cx="140" cy="60" r="1.5"/>
    <circle cx="180" cy="60" r="1.5"/>
    
    <circle cx="40" cy="80" r="1.5"/>
    <circle cx="80" cy="80" r="1.5"/>
    <circle cx="120" cy="80" r="1.5"/>
    <circle cx="160" cy="80" r="1.5"/>
    
    <circle cx="20" cy="100" r="1.5"/>
    <circle cx="60" cy="100" r="1.5"/>
    <circle cx="100" cy="100" r="1.5"/>
    <circle cx="140" cy="100" r="1.5"/>
    <circle cx="180" cy="100" r="1.5"/>
    
    <circle cx="40" cy="120" r="1.5"/>
    <circle cx="80" cy="120" r="1.5"/>
    <circle cx="120" cy="120" r="1.5"/>
    <circle cx="160" cy="120" r="1.5"/>
    
    <circle cx="20" cy="140" r="1.5"/>
    <circle cx="60" cy="140" r="1.5"/>
    <circle cx="100" cy="140" r="1.5"/>
    <circle cx="140" cy="140" r="1.5"/>
    <circle cx="180" cy="140" r="1.5"/>
    
    <circle cx="40" cy="160" r="1.5"/>
    <circle cx="80" cy="160" r="1.5"/>
    <circle cx="120" cy="160" r="1.5"/>
    <circle cx="160" cy="160" r="1.5"/>
    
    <circle cx="20" cy="180" r="1.5"/>
    <circle cx="60" cy="180" r="1.5"/>
    <circle cx="100" cy="180" r="1.5"/>
    <circle cx="140" cy="180" r="1.5"/>
    <circle cx="180" cy="180" r="1.5"/>
  </g>
</svg> 